<svg width="242" height="49" viewBox="0 0 242 49" fill="none" xmlns="http://www.w3.org/2000/svg">
<g clip-path="url(#clip0_287_3131)">
<path d="M40.9778 9.74246C40.9082 9.34699 40.5287 8.96973 40.135 8.90275C32.8965 7.67545 25.6565 7.15439 18.4175 7.34154C18.0149 7.35139 17.6418 7.55972 17.4222 7.89855C16.775 8.89438 15.9298 10.0242 14.986 10.8624C10.4528 14.893 5.84466 12.8772 4.18015 18.6562C3.84381 19.8209 3.98649 21.5525 5.3833 21.8062C6.70804 22.0475 9.5154 20.4774 10.4523 16.4616C10.4523 16.4616 13.7068 20.6124 8.65349 26.181C5.09796 30.1003 1.74295 31.3828 0 31.8029C0.17307 36.7229 0.695221 41.6425 1.56841 46.5615C1.63901 46.957 2.01751 47.3343 2.41121 47.4017C10.3072 48.7394 18.2037 49.2378 26.0997 48.8945H26.1007C27.0342 48.4877 27.9064 47.9548 28.6085 47.256C31.2839 44.5911 30.2137 44.1207 31.4256 42.4408C32.7572 40.5935 34.9929 40.3206 34.9929 40.3206C34.9929 40.3206 34.31 41.6971 34.2202 42.9476C34.1609 43.7696 34.6036 44.2896 35.2307 44.3512C35.8401 44.4108 38.3857 43.9242 40.8047 39.3494C42.3217 36.4826 42.5668 34.6914 42.5668 31.1695V31.1685C42.7747 24.0264 42.2457 16.8842 40.9783 9.74148L40.9778 9.74246ZM33.3642 26.8109C33.0264 31.304 29.8793 39.8532 19.7545 41.705C10.2175 43.449 6.44721 38.9707 6.88209 37.2312C7.12576 36.2555 7.99307 36.2393 8.74664 36.2024C9.43647 36.1689 13.0587 36.063 15.31 32.6785C17.507 29.3778 16.8584 26.9941 16.8437 25.954C16.7451 19.0979 22.7295 17.7953 24.7544 17.7884C24.62 17.1078 24.4837 15.6716 25.1937 13.9873C26.1674 11.677 27.9201 11.3603 27.9201 11.3603C28.3976 11.5233 28.8276 11.8735 29.1478 12.2926C27.1867 13.877 26.4189 16.1425 26.8459 18.0007C31.2741 18.9507 33.6564 22.9271 33.3647 26.8109H33.3642Z" fill="#EAEAEA"/>
<path d="M201.877 29.1607C201.675 28.9578 201.47 28.7588 201.261 28.5643C201.47 28.3688 201.675 28.1698 201.877 27.9669C205.969 23.857 208.323 18.4671 208.57 12.6956H198.233C197.873 17.2733 195.089 21.166 191.169 23.0799C190.976 23.1744 190.779 23.265 190.58 23.3488V12.6956H181.393V44.4434H190.58V33.7784C190.779 33.8636 190.975 33.9527 191.168 34.0473C195.092 35.9621 197.877 39.8592 198.235 44.4434H208.571C208.327 38.6679 205.973 33.2736 201.878 29.1607H201.877Z" fill="#EAEAEA"/>
<path d="M97.4598 13.2777C96.3709 12.9694 95.2226 12.8044 94.0361 12.8044C92.8497 12.8044 91.7014 12.9694 90.6135 13.2763C85.3125 14.7739 81.4266 19.6664 81.4266 25.471V44.5523H90.6135V38.1375H97.4598V44.5523H106.646V25.471C106.646 19.6664 102.76 14.7754 97.4598 13.2772V13.2777ZM98.1432 29.4282H89.9286V25.1228C90.0183 22.9711 91.7465 21.2468 93.893 21.1744H94.1769C96.3454 21.2478 98.0893 23.0095 98.1432 25.1927V29.4282Z" fill="#EAEAEA"/>
<path d="M227.836 13.2777C226.747 12.9694 225.599 12.8044 224.412 12.8044C223.226 12.8044 222.077 12.9694 220.989 13.2763C215.688 14.7739 211.802 19.6664 211.802 25.471V44.5523H220.989V38.1375H227.836V44.5523H237.022V25.471C237.022 19.6664 233.136 14.7754 227.836 13.2772V13.2777ZM228.52 29.4282H220.304V25.1228C220.394 22.9711 222.124 21.2468 224.27 21.1744H224.552C226.722 21.2478 228.465 23.0095 228.52 25.1927V29.4282H228.52Z" fill="#EAEAEA"/>
<path d="M66.3352 12.8059C66.3077 12.8049 66.2813 12.8049 66.2538 12.8049C66.2165 12.8049 66.1798 12.8049 66.1425 12.8059H53.6437V44.5528H62.8307V38.138H66.2533C73.2168 38.138 78.8629 32.4664 78.8629 25.4715C78.8629 18.4765 73.2614 12.8493 66.3347 12.8059H66.3352ZM66.3474 29.8237C66.3102 29.8246 66.2724 29.8246 66.2352 29.8246C66.1979 29.8246 66.1611 29.8246 66.1239 29.8237H62.1286V21.1385H66.0866C66.1361 21.1375 66.1861 21.1365 66.2347 21.1365C66.2832 21.1365 66.3342 21.1375 66.3837 21.1385C68.7037 21.2173 70.559 23.1306 70.559 25.4813C70.559 27.832 68.6836 29.7636 66.347 29.8242L66.3474 29.8237Z" fill="#EAEAEA"/>
<path d="M123.747 12.8059C123.719 12.8049 123.693 12.8049 123.665 12.8049C123.628 12.8049 123.591 12.8049 123.554 12.8059H111.055V44.5528H120.242V38.138H123.665C130.628 38.138 136.274 32.4664 136.274 25.4715C136.274 18.4765 130.673 12.8493 123.746 12.8059H123.747ZM123.76 29.8237C123.722 29.8246 123.685 29.8246 123.647 29.8246C123.61 29.8246 123.573 29.8246 123.536 29.8237H119.541V21.1385H123.499C123.548 21.1375 123.598 21.1365 123.647 21.1365C123.695 21.1365 123.746 21.1375 123.796 21.1385C126.116 21.2173 127.971 23.1306 127.971 25.4813C127.971 27.832 126.096 29.7636 123.759 29.8242L123.76 29.8237Z" fill="#EAEAEA"/>
<path d="M163.924 25.4661C163.924 18.4977 158.323 12.8439 151.396 12.8005C151.369 12.7996 151.342 12.7996 151.315 12.7996C151.278 12.7996 151.241 12.7996 151.204 12.8005H138.705V44.5474H147.892V38.1326H149.73L153.277 44.5567H163.782L158.849 35.6238C161.928 33.3135 163.923 29.6237 163.923 25.4661H163.924ZM154.922 27.8434C154.171 29.0042 152.88 29.7804 151.409 29.8188C151.372 29.8198 151.334 29.8198 151.297 29.8198C151.259 29.8198 151.222 29.8198 151.184 29.8188H147.189V21.1336H151.148C151.17 21.1336 151.194 21.1326 151.216 21.1326C151.243 21.1316 151.27 21.1316 151.296 21.1316C151.346 21.1316 151.396 21.1326 151.444 21.1336C153.765 21.2134 155.621 23.1267 155.621 25.4764C155.621 26.3491 155.365 27.1637 154.922 27.8439L154.922 27.8434Z" fill="#EAEAEA"/>
<path d="M176.6 12.7065H167.413V44.5573H176.6V12.7065Z" fill="#EAEAEA"/>
<path d="M172.007 9.95238C174.743 9.95238 176.961 7.72446 176.961 4.97619C176.961 2.22792 174.743 0 172.007 0C169.271 0 167.053 2.22792 167.053 4.97619C167.053 7.72446 169.271 9.95238 172.007 9.95238Z" fill="#EAEAEA"/>
<path d="M236.83 13.3123H238.9V13.8156H238.148V15.8949H237.591V13.8156H236.829V13.3123H236.83ZM239.29 13.3123H239.93L240.645 15.1025L241.369 13.3123H242V15.8949H241.471V14.3283L240.849 15.8949H240.441L239.819 14.3283V15.8949H239.29V13.3123H239.29Z" fill="#EAEAEA"/>
</g>
<defs>
<clipPath id="clip0_287_3131">
<rect width="242" height="49" fill="white"/>
</clipPath>
</defs>
</svg>